HIERARCHY
ROOT hip
{
	OFFSET 0.000000 0.000000 0.000000
	CHANNELS 6 Xposition Yposition Zposition Zrotation Yrotation Xrotation 
	JOINT lhipjoint
	{
		OFFSET 0.000000 0.000000 0.000000
		CHANNELS 3 Zrotation Yrotation Xrotation
		JOINT lfemur
		{
			OFFSET 1.363060 -1.794630 0.839290
			CHANNELS 3 Zrotation Yrotation Xrotation
			JOINT ltibia
			{
				OFFSET 2.448110 -6.726130 0.000000
				CHANNELS 3 Zrotation Yrotation Xrotation
				JOINT lfoot
				{
					OFFSET 2.562200 -7.039590 0.000000
					CHANNELS 3 Zrotation Yrotation Xrotation
					JOINT ltoes
					{
						OFFSET 0.157640 -0.433110 2.322550
						CHANNELS 3 Zrotation Yrotation Xrotation
						End Site
						{
							OFFSET 0.000000 0.000000 0.000000
						}
					}
				}
			}
		}
	}
	JOINT rhipjoint
	{
		OFFSET 0.000000 0.000000 0.000000
		CHANNELS 3 Zrotation Yrotation Xrotation
		JOINT rfemur
		{
			OFFSET -1.305520 -1.794630 0.839290
			CHANNELS 3 Zrotation Yrotation Xrotation
			JOINT rtibia
			{
				OFFSET -2.542530 -6.985550 0.000000
				CHANNELS 3 Zrotation Yrotation Xrotation
				JOINT rfoot
				{
					OFFSET -2.568260 -7.056230 0.000000
					CHANNELS 3 Zrotation Yrotation Xrotation
					JOINT rtoes
					{
						OFFSET -0.164730 -0.452590 2.363150
						CHANNELS 3 Zrotation Yrotation Xrotation
						End Site
						{
							OFFSET 0.000000 0.000000 0.000000
						}
					}
				}
			}
		}
	}
	JOINT lowerback
	{
		OFFSET 0.000000 0.000000 0.000000
		CHANNELS 3 Zrotation Yrotation Xrotation
		JOINT upperback
		{
			OFFSET 0.028270 2.035590 -0.193380
			CHANNELS 3 Zrotation Yrotation Xrotation
			JOINT thorax
			{
				OFFSET 0.056720 2.048850 -0.042750
				CHANNELS 3 Zrotation Yrotation Xrotation
				JOINT lowerneck
				{
					OFFSET 0.000000 0.000000 0.000000
					CHANNELS 3 Zrotation Yrotation Xrotation
					JOINT upperneck
					{
						OFFSET -0.054170 1.746240 0.172020
						CHANNELS 3 Zrotation Yrotation Xrotation
						JOINT head
						{
							OFFSET 0.104070 1.761360 -0.123970
							CHANNELS 3 Zrotation Yrotation Xrotation
							End Site
							{
								OFFSET 0.000000 0.000000 0.000000
							}
						}
					}
				}
				JOINT lclavicle
				{
					OFFSET 0.000000 0.000000 0.000000
					CHANNELS 3 Zrotation Yrotation Xrotation
					JOINT lhumerus
					{
						OFFSET 3.362410 1.200890 -0.311210
						CHANNELS 3 Zrotation Yrotation Xrotation
						JOINT lradius
						{
							OFFSET 4.983000 -0.000000 -0.000000
							CHANNELS 3 Zrotation Yrotation Xrotation
							JOINT lwrist
							{
								OFFSET 3.483560 -0.000000 -0.000000
								CHANNELS 3 Zrotation Yrotation Xrotation
								JOINT lhand
								{
									OFFSET 0.000000 0.000000 0.000000
									CHANNELS 3 Zrotation Yrotation Xrotation
									JOINT lfingers
									{
										OFFSET 0.715260 -0.000000 -0.000000
										CHANNELS 3 Zrotation Yrotation Xrotation
										End Site
										{
											OFFSET 0.000000 0.000000 0.000000
										}
									}
								}
								JOINT lthumb
								{
									OFFSET 0.000000 0.000000 0.000000
									CHANNELS 3 Zrotation Yrotation Xrotation
									End Site
									{
										OFFSET 0.000000 0.000000 0.000000
									}
								}
							}
						}
					}
				}
				JOINT rclavicle
				{
					OFFSET 0.000000 0.000000 0.000000
					CHANNELS 3 Zrotation Yrotation Xrotation
					JOINT rhumerus
					{
						OFFSET -3.136600 1.374050 -0.404650
						CHANNELS 3 Zrotation Yrotation Xrotation
						JOINT rradius
						{
							OFFSET -5.241900 -0.000000 -0.000000
							CHANNELS 3 Zrotation Yrotation Xrotation
							JOINT rwrist
							{
								OFFSET -3.444170 -0.000000 -0.000000
								CHANNELS 3 Zrotation Yrotation Xrotation
								JOINT rhand
								{
									OFFSET 0.000000 0.000000 0.000000
									CHANNELS 3 Zrotation Yrotation Xrotation
									JOINT rfingers
									{
										OFFSET -0.622530 -0.000000 -0.000000
										CHANNELS 3 Zrotation Yrotation Xrotation
										End Site
										{
											OFFSET 0.000000 0.000000 0.000000
										}
									}
								}
								JOINT rthumb
								{
									OFFSET 0.000000 0.000000 0.000000
									CHANNELS 3 Zrotation Yrotation Xrotation
									End Site
									{
										OFFSET 0.000000 0.000000 0.000000
									}
								}
							}
						}
					}
				}
			}
		}
	}
}
MOTION
Frames: 6
Frame Time: 0.008333
-20.490875 19.836145 -0.508984 -3.821180 -74.719349 7.122450 -3.345061 2.178429 1.704277 -13.456278 -2.165076 -17.376590 2.037773 8.537779 27.286821 1.879152 -18.994550 10.840867 0.044300 1.358900 3.736900 -0.628469 -3.650444 1.414807 14.718456 6.795399 -11.218783 -2.526852 -9.168925 30.571289 -2.412236 21.607794 2.675712 -0.376600 3.941300 -10.911500 -7.858386 6.735057 -7.268907 -2.510259 10.664808 -2.667314 -3.300173 5.889514 12.879071 2.862057 -12.658844 -1.973406 -4.805720 -15.994072 10.461707 0.865000 -8.060200 2.347100 0.176279 4.775830 1.441646 -78.089063 4.815840 29.197785 11.082434 -32.016684 -2.875628 -0.322607 -0.230127 11.682638 23.934143 -6.116002 -2.592400 -7.125000 0.000000 0.000000 -1.856500 23.646800 0.956500 2.255857 -2.386669 0.978418 7.828344 33.452985 -0.919280 -30.755898 46.933349 -9.325302 0.481626 -1.070723 -30.984346 7.944408 7.059997 1.165700 7.125000 0.000000 0.000000 24.659200 -21.769200 15.190900 
-20.499075 19.835940 -0.529176 -3.554099 -74.559695 6.883463 -3.340978 2.188630 1.709819 -13.448004 -2.194821 -17.382399 2.024491 8.519641 27.227414 1.874876 -19.127949 11.008140 0.049900 1.441100 3.963400 -0.625421 -3.643868 1.419793 14.639581 7.037029 -10.988697 -2.519613 -9.161634 30.569796 -2.390204 21.928497 2.960150 -0.393600 4.028100 -11.155800 -7.858272 6.729495 -7.332302 -2.510663 10.666817 -2.669034 -3.274530 5.893862 12.897404 2.757549 -12.635840 -1.991634 -4.756850 -15.989825 10.520907 0.902600 -8.064700 2.406900 0.170184 4.761405 1.435226 -77.941078 4.822502 29.035272 10.878492 -31.750453 -2.803213 -0.331537 -0.244952 12.068902 23.854760 -6.180543 -2.603100 -7.125000 0.000000 0.000000 -1.913400 23.601800 0.987800 2.250358 -2.387009 0.957151 7.726819 33.357199 -0.625604 -30.742623 46.917964 -9.319820 0.476479 -1.097179 -31.117767 7.279226 7.363709 1.113100 7.125000 0.000000 0.000000 24.179500 -21.490100 15.004800 
-20.506249 19.835120 -0.549674 -3.208456 -74.365723 6.557600 -3.336415 2.202711 1.716408 -13.454214 -2.251671 -17.373852 2.011643 8.502322 27.172120 1.869129 -19.295374 11.195314 0.055300 1.517500 4.173900 -0.621826 -3.635006 1.424888 14.534710 7.213841 -10.756300 -2.510162 -9.152339 30.559617 -2.365054 22.317970 3.259156 -0.401900 4.070100 -11.274000 -7.872017 6.727742 -7.376577 -2.514417 10.672400 -2.667754 -3.254460 5.900643 12.922529 2.635230 -12.626834 -2.014914 -4.694314 -16.007623 10.579351 0.951100 -8.080600 2.474700 0.159173 4.749038 1.426676 -77.767048 4.827551 28.937468 10.691523 -31.502876 -2.736894 -0.341423 -0.258537 12.433456 23.738887 -6.248556 -2.611500 -7.125000 0.000000 0.000000 -1.996500 23.553500 1.032900 2.242191 -2.390481 0.940687 7.657382 33.258127 -0.398923 -30.682524 46.866108 -9.290642 0.469635 -1.121369 -31.164289 6.653426 7.729603 1.066600 7.125000 0.000000 0.000000 23.715600 -21.152100 14.861400 
-20.512194 19.835325 -0.571506 -2.878524 -74.186327 6.278668 -3.331759 2.214648 1.722030 -13.464874 -2.295439 -17.417483 2.000486 8.486843 27.124772 1.863112 -19.476579 11.367295 0.058400 1.559900 4.290900 -0.617223 -3.626477 1.431952 14.432533 7.503917 -10.513511 -2.495642 -9.135794 30.528642 -2.335351 22.689290 3.596685 -0.385300 3.985900 -11.037000 -7.878061 6.724802 -7.463436 -2.520468 10.683784 -2.671833 -3.255477 5.909788 12.939417 2.602713 -12.626740 -2.006365 -4.657604 -16.029088 10.636294 0.972900 -8.096800 2.514300 0.149608 4.737934 1.417792 -77.567790 4.832751 28.861582 10.514726 -31.263418 -2.675932 -0.348742 -0.271317 12.767101 23.617388 -6.238837 -2.585200 -7.125000 0.000000 0.000000 -2.084200 23.588400 1.076700 2.238418 -2.390443 0.922674 7.559046 33.158325 -0.111171 -30.637251 46.827506 -9.269523 0.464473 -1.145169 -31.231357 6.009215 8.057888 1.005000 7.125000 0.000000 0.000000 23.246700 -20.845600 14.689600 
-20.517011 19.834197 -0.595079 -2.558103 -73.991364 5.971497 -3.325540 2.227470 1.729947 -13.467401 -2.315851 -17.444256 1.990645 8.475002 27.088308 1.856324 -19.662310 11.567317 0.064500 1.638100 4.506400 -0.611507 -3.619303 1.441303 14.338056 7.762698 -10.247293 -2.477115 -9.114621 30.485790 -2.297566 23.113442 4.001155 -0.365600 3.883900 -10.750300 -7.867218 6.745186 -7.503116 -2.535630 10.717193 -2.673491 -3.334807 5.936069 12.959644 2.761901 -12.630811 -2.062208 -4.688315 -16.054858 10.721834 0.917300 -8.112500 2.544600 0.141134 4.727277 1.401458 -77.248844 4.798224 28.972000 10.365581 -31.039484 -2.621247 -0.352020 -0.285626 12.958347 23.516883 -6.168830 -2.535100 -7.125000 0.000000 0.000000 -2.158100 23.687500 1.110000 2.242727 -2.390247 0.908445 7.536300 33.037966 0.150980 -30.569612 46.763651 -9.238362 0.460567 -1.169609 -31.244475 5.320293 8.361749 0.926000 7.125000 0.000000 0.000000 22.752200 -20.557900 14.482600 
-20.521009 19.833992 -0.617730 -2.310646 -73.783640 5.753290 -3.320389 2.237429 1.735368 -13.451001 -2.396678 -17.475086 1.982465 8.463824 27.055738 1.850344 -19.821599 11.709729 0.065100 1.646500 4.529800 -0.605835 -3.614601 1.452192 14.259993 8.040127 -9.989335 -2.455264 -9.089924 30.432068 -2.253287 23.558099 4.450593 -0.331500 3.700300 -10.235000 -7.839973 6.755658 -7.574835 -2.541899 10.739706 -2.679986 -3.367260 5.953074 12.954977 2.835826 -12.651554 -2.021255 -4.687657 -16.092031 10.771527 0.904600 -8.134300 2.549500 0.135808 4.716081 1.389653 -76.986236 4.801367 29.061363 10.189492 -30.786598 -2.556903 -0.355977 -0.301015 13.176634 23.439718 -6.134744 -2.503000 -7.125000 0.000000 0.000000 -2.215300 23.748100 1.136400 2.242431 -2.382783 0.894796 7.475157 32.878409 0.473649 -30.541601 46.729422 -9.227992 0.458326 -1.191585 -31.260470 4.652796 8.602170 0.837600 7.125000 0.000000 0.000000 22.281100 -20.326400 14.257600 
